<mxfile host="app.diagrams.net" modified="2024-05-17T13:37:45.260Z" agent="Mozilla/5.0 (Windows NT 10.0; Win64; x64) AppleWebKit/537.36 (KHTML, like Gecko) Chrome/125.0.0.0 Safari/537.36" etag="VBe7Rg_oq1WCBJhcnvRA" version="24.4.2" type="device">
  <diagram name="P치gina-1" id="hOnt8-4i_taNFi46hVp-">
    <mxGraphModel dx="1050" dy="572" grid="0" gridSize="10" guides="1" tooltips="1" connect="1" arrows="1" fold="1" page="1" pageScale="1" pageWidth="827" pageHeight="1169" background="#FFFFFF" math="0" shadow="0">
      <root>
        <mxCell id="0" />
        <mxCell id="1" parent="0" />
        <mxCell id="A3y6ZWQswXcBd1Y43o3--1" value="Medico" style="swimlane;childLayout=stackLayout;horizontal=1;startSize=50;horizontalStack=0;rounded=1;fontSize=14;fontStyle=0;strokeWidth=2;resizeParent=0;resizeLast=1;shadow=0;dashed=0;align=center;arcSize=4;whiteSpace=wrap;html=1;labelBackgroundColor=none;fillColor=#FAE5C7;strokeColor=#0F8B8D;fontColor=#143642;" parent="1" vertex="1">
          <mxGeometry x="70" y="100" width="160" height="120" as="geometry" />
        </mxCell>
        <mxCell id="A3y6ZWQswXcBd1Y43o3--2" value="rut(PK)&lt;div&gt;nombre&lt;br&gt;direcci칩n&lt;/div&gt;" style="align=left;strokeColor=none;fillColor=none;spacingLeft=4;fontSize=12;verticalAlign=top;resizable=0;rotatable=0;part=1;html=1;labelBackgroundColor=none;fontColor=#143642;" parent="A3y6ZWQswXcBd1Y43o3--1" vertex="1">
          <mxGeometry y="50" width="160" height="70" as="geometry" />
        </mxCell>
        <mxCell id="A3y6ZWQswXcBd1Y43o3--3" value="Especialidad" style="swimlane;childLayout=stackLayout;horizontal=1;startSize=50;horizontalStack=0;rounded=1;fontSize=14;fontStyle=0;strokeWidth=2;resizeParent=0;resizeLast=1;shadow=0;dashed=0;align=center;arcSize=4;whiteSpace=wrap;html=1;labelBackgroundColor=none;fillColor=#FAE5C7;strokeColor=#0F8B8D;fontColor=#143642;" parent="1" vertex="1">
          <mxGeometry x="420" y="100" width="160" height="120" as="geometry" />
        </mxCell>
        <mxCell id="A3y6ZWQswXcBd1Y43o3--4" value="codigo(PK)&lt;div&gt;descripci칩n&lt;br&gt;&lt;br&gt;&lt;/div&gt;" style="align=left;strokeColor=none;fillColor=none;spacingLeft=4;fontSize=12;verticalAlign=top;resizable=0;rotatable=0;part=1;html=1;labelBackgroundColor=none;fontColor=#143642;" parent="A3y6ZWQswXcBd1Y43o3--3" vertex="1">
          <mxGeometry y="50" width="160" height="70" as="geometry" />
        </mxCell>
        <mxCell id="A3y6ZWQswXcBd1Y43o3--5" value="Consulta" style="swimlane;childLayout=stackLayout;horizontal=1;startSize=50;horizontalStack=0;rounded=1;fontSize=14;fontStyle=0;strokeWidth=2;resizeParent=0;resizeLast=1;shadow=0;dashed=0;align=center;arcSize=4;whiteSpace=wrap;html=1;labelBackgroundColor=none;fillColor=#FAE5C7;strokeColor=#0F8B8D;fontColor=#143642;" parent="1" vertex="1">
          <mxGeometry x="70" y="292" width="164" height="159" as="geometry" />
        </mxCell>
        <mxCell id="A3y6ZWQswXcBd1Y43o3--6" value="&lt;div&gt;id_consulta(PK)&lt;/div&gt;&lt;div&gt;fecha&lt;/div&gt;&lt;div&gt;num_atencion&lt;br&gt;&lt;/div&gt;&lt;div&gt;&lt;span style=&quot;background-color: initial;&quot;&gt;num_box&lt;/span&gt;&lt;br&gt;&lt;/div&gt;&lt;div&gt;&lt;div&gt;medico_rut(FK)&lt;/div&gt;&lt;div&gt;paciente_rut(FK)&lt;/div&gt;&lt;/div&gt;" style="align=left;strokeColor=none;fillColor=none;spacingLeft=4;fontSize=12;verticalAlign=top;resizable=0;rotatable=0;part=1;html=1;labelBackgroundColor=none;fontColor=#143642;" parent="A3y6ZWQswXcBd1Y43o3--5" vertex="1">
          <mxGeometry y="50" width="164" height="109" as="geometry" />
        </mxCell>
        <mxCell id="A3y6ZWQswXcBd1Y43o3--9" value="Paciente" style="swimlane;childLayout=stackLayout;horizontal=1;startSize=50;horizontalStack=0;rounded=1;fontSize=14;fontStyle=0;strokeWidth=2;resizeParent=0;resizeLast=1;shadow=0;dashed=0;align=center;arcSize=4;whiteSpace=wrap;html=1;labelBackgroundColor=none;fillColor=#FAE5C7;strokeColor=#0F8B8D;fontColor=#143642;" parent="1" vertex="1">
          <mxGeometry x="410" y="292" width="160" height="120" as="geometry" />
        </mxCell>
        <mxCell id="A3y6ZWQswXcBd1Y43o3--10" value="rut(PK)&lt;div&gt;nombre&lt;br&gt;direcci칩n&lt;/div&gt;" style="align=left;strokeColor=none;fillColor=none;spacingLeft=4;fontSize=12;verticalAlign=top;resizable=0;rotatable=0;part=1;html=1;labelBackgroundColor=none;fontColor=#143642;" parent="A3y6ZWQswXcBd1Y43o3--9" vertex="1">
          <mxGeometry y="50" width="160" height="70" as="geometry" />
        </mxCell>
        <mxCell id="A3y6ZWQswXcBd1Y43o3--11" value="" style="edgeStyle=entityRelationEdgeStyle;fontSize=12;html=1;endArrow=ERoneToMany;rounded=0;exitX=0;exitY=0.25;exitDx=0;exitDy=0;entryX=1;entryY=0.25;entryDx=0;entryDy=0;labelBackgroundColor=none;strokeColor=#A8201A;fontColor=default;" parent="1" source="A3y6ZWQswXcBd1Y43o3--4" target="A3y6ZWQswXcBd1Y43o3--1" edge="1">
          <mxGeometry width="100" height="100" relative="1" as="geometry">
            <mxPoint x="290" y="220" as="sourcePoint" />
            <mxPoint x="390" y="120" as="targetPoint" />
            <Array as="points">
              <mxPoint x="360" y="230" />
            </Array>
          </mxGeometry>
        </mxCell>
        <mxCell id="A3y6ZWQswXcBd1Y43o3--16" value="" style="fontSize=12;html=1;endArrow=ERoneToMany;rounded=0;exitX=0;exitY=0.25;exitDx=0;exitDy=0;labelBackgroundColor=none;strokeColor=#A8201A;fontColor=default;" parent="1" source="A3y6ZWQswXcBd1Y43o3--10" edge="1">
          <mxGeometry width="100" height="100" relative="1" as="geometry">
            <mxPoint x="350" y="312" as="sourcePoint" />
            <mxPoint x="236" y="362" as="targetPoint" />
          </mxGeometry>
        </mxCell>
        <mxCell id="A3y6ZWQswXcBd1Y43o3--17" value="Licencia" style="swimlane;childLayout=stackLayout;horizontal=1;startSize=50;horizontalStack=0;rounded=1;fontSize=14;fontStyle=0;strokeWidth=2;resizeParent=0;resizeLast=1;shadow=0;dashed=0;align=center;arcSize=4;whiteSpace=wrap;html=1;labelBackgroundColor=none;fillColor=#FAE5C7;strokeColor=#0F8B8D;fontColor=#143642;" parent="1" vertex="1">
          <mxGeometry x="72" y="547" width="163" height="157" as="geometry" />
        </mxCell>
        <mxCell id="A3y6ZWQswXcBd1Y43o3--18" value="codigo(PK)&lt;div&gt;diagnostico&lt;/div&gt;&lt;div&gt;fecha_inicio&lt;/div&gt;&lt;div&gt;fecha_termino&lt;/div&gt;&lt;div&gt;&lt;br&gt;&lt;/div&gt;" style="align=left;strokeColor=none;fillColor=none;spacingLeft=4;fontSize=12;verticalAlign=top;resizable=0;rotatable=0;part=1;html=1;labelBackgroundColor=none;fontColor=#143642;" parent="A3y6ZWQswXcBd1Y43o3--17" vertex="1">
          <mxGeometry y="50" width="163" height="107" as="geometry" />
        </mxCell>
        <mxCell id="A3y6ZWQswXcBd1Y43o3--29" value="" style="fontSize=12;html=1;endArrow=ERoneToMany;rounded=0;exitX=0.425;exitY=1.017;exitDx=0;exitDy=0;exitPerimeter=0;entryX=0.42;entryY=0.007;entryDx=0;entryDy=0;entryPerimeter=0;labelBackgroundColor=none;strokeColor=#A8201A;fontColor=default;" parent="1" source="A3y6ZWQswXcBd1Y43o3--2" target="A3y6ZWQswXcBd1Y43o3--5" edge="1">
          <mxGeometry width="100" height="100" relative="1" as="geometry">
            <mxPoint x="110" y="340" as="sourcePoint" />
            <mxPoint x="150" y="430" as="targetPoint" />
          </mxGeometry>
        </mxCell>
        <mxCell id="V5lLvUUczkSKAS6xhmhC-3" value="" style="fontSize=12;html=1;endArrow=ERzeroToOne;startArrow=ERmandOne;rounded=0;exitX=0.75;exitY=1;exitDx=0;exitDy=0;strokeColor=#A8201A;" edge="1" parent="1">
          <mxGeometry width="100" height="100" relative="1" as="geometry">
            <mxPoint x="147.16" y="451" as="sourcePoint" />
            <mxPoint x="147" y="544.88" as="targetPoint" />
          </mxGeometry>
        </mxCell>
      </root>
    </mxGraphModel>
  </diagram>
</mxfile>
